<svg xmlns="http://www.w3.org/2000/svg" width="1280" height="640" viewBox="0 0 1280 640" role="img" aria-labelledby="title desc">
  <title id="title">Vivary organization hero</title>
  <desc id="desc">Typed memory and gates for agent workspaces.</desc>
  <defs>
    <linearGradient id="bg" x1="0" y1="0" x2="1" y2="1">
      <stop offset="0" stop-color="#06121f"/>
      <stop offset="0.55" stop-color="#0b1f2a"/>
      <stop offset="1" stop-color="#162b20"/>
    </linearGradient>
    <linearGradient id="green" x1="0" y1="0" x2="1" y2="1">
      <stop offset="0" stop-color="#22c55e"/>
      <stop offset="1" stop-color="#a3e635"/>
    </linearGradient>
    <linearGradient id="cyan" x1="0" y1="0" x2="1" y2="1">
      <stop offset="0" stop-color="#38bdf8"/>
      <stop offset="1" stop-color="#2dd4bf"/>
    </linearGradient>
    <pattern id="dots" width="28" height="28" patternUnits="userSpaceOnUse">
      <circle cx="3" cy="3" r="1.4" fill="#ffffff" opacity="0.12"/>
    </pattern>
  </defs>
  <rect width="1280" height="640" rx="34" fill="url(#bg)"/>
  <rect width="1280" height="640" rx="34" fill="url(#dots)"/>
  <path d="M 0 476 C 210 380 330 540 525 450 C 700 370 800 240 1022 315 C 1118 347 1190 334 1280 286 L 1280 640 L 0 640 Z" fill="#0f766e" opacity="0.76"/>
  <path d="M 850 78 L 1172 78 L 1172 400 L 850 400 Z" fill="#0b1120" stroke="#ffffff" stroke-opacity="0.12" stroke-width="2"/>
  <path d="M 1008 104 L 1132 228 L 1008 352 L 884 228 Z" fill="none" stroke="url(#green)" stroke-width="18"/>
  <path d="M 924 228 H 1092 M 1008 144 V 312" stroke="url(#cyan)" stroke-width="14" stroke-linecap="round"/>
  <circle cx="1008" cy="228" r="42" fill="#0b1120" stroke="#f9fafb" stroke-opacity="0.9" stroke-width="10"/>
  <text x="82" y="126" fill="#86efac" font-family="Segoe UI, Arial, sans-serif" font-size="22" font-weight="800" letter-spacing="4">VIVARY</text>
  <text x="80" y="220" fill="#f9fafb" font-family="Segoe UI, Arial, sans-serif" font-size="74" font-weight="850">Typed memory</text>
  <text x="84" y="294" fill="#e5e7eb" font-family="Segoe UI, Arial, sans-serif" font-size="46" font-weight="650">and gates for agent workspaces</text>
  <text x="86" y="372" fill="#cbd5e1" font-family="Segoe UI, Arial, sans-serif" font-size="28">Plain Markdown / graph-aware context / visible state / human approval gates</text>
  <g transform="translate(86 456)">
    <rect width="194" height="46" rx="23" fill="#ffffff" fill-opacity="0.1" stroke="#ffffff" stroke-opacity="0.16"/>
    <text x="25" y="31" fill="#f9fafb" font-family="Segoe UI, Arial, sans-serif" font-size="18" font-weight="750">create-vivary</text>
  </g>
  <g transform="translate(304 456)">
    <rect width="148" height="46" rx="23" fill="#ffffff" fill-opacity="0.1" stroke="#ffffff" stroke-opacity="0.16"/>
    <text x="25" y="31" fill="#f9fafb" font-family="Segoe UI, Arial, sans-serif" font-size="18" font-weight="750">tropo</text>
  </g>
  <g transform="translate(476 456)">
    <rect width="151" height="46" rx="23" fill="#ffffff" fill-opacity="0.1" stroke="#ffffff" stroke-opacity="0.16"/>
    <text x="25" y="31" fill="#f9fafb" font-family="Segoe UI, Arial, sans-serif" font-size="18" font-weight="750">ozone</text>
  </g>
  <g transform="translate(651 456)">
    <rect width="124" height="46" rx="23" fill="#ffffff" fill-opacity="0.1" stroke="#ffffff" stroke-opacity="0.16"/>
    <text x="25" y="31" fill="#f9fafb" font-family="Segoe UI, Arial, sans-serif" font-size="18" font-weight="750">exo</text>
  </g>
</svg>
